# Blender v2.76 (sub 0) OBJ File: 'floor.blend'
# www.blender.org
o Plane_Plane.001
v 1.000000 0.000000 1.000000
v -1.000000 0.000000 1.000000
v 1.000000 1.307479 -1.000000
v -1.000000 1.307479 -1.000000
v 1.000000 0.379470 -1.000000
v 1.000000 0.000000 -0.620530
v 1.000000 0.333730 -0.997233
v 1.000000 0.288657 -0.988973
v 1.000000 0.244908 -0.975341
v 1.000000 0.203121 -0.956534
v 1.000000 0.163906 -0.932828
v 1.000000 0.127835 -0.904567
v 1.000000 0.095433 -0.872165
v 1.000000 0.067172 -0.836093
v 1.000000 0.043466 -0.796879
v 1.000000 0.024659 -0.755092
v 1.000000 0.011027 -0.711343
v 1.000000 0.002767 -0.666270
v -1.000000 0.000000 -0.620530
v -1.000000 0.379470 -1.000000
v -1.000000 0.002767 -0.666270
v -1.000000 0.011027 -0.711343
v -1.000000 0.024659 -0.755092
v -1.000000 0.043466 -0.796879
v -1.000000 0.067172 -0.836094
v -1.000000 0.095433 -0.872165
v -1.000000 0.127835 -0.904567
v -1.000000 0.163906 -0.932828
v -1.000000 0.203121 -0.956534
v -1.000000 0.244908 -0.975341
v -1.000000 0.288657 -0.988973
v -1.000000 0.333730 -0.997233
vn -0.000000 0.000000 1.000000
vn -0.000000 0.060400 0.998200
vn -0.000000 0.180300 0.983600
vn -0.000000 0.297500 0.954700
vn -0.000000 0.410400 0.911900
vn -0.000000 0.517300 0.855800
vn 0.000000 0.616700 0.787200
vn -0.000000 0.707100 0.707100
vn -0.000000 0.787200 0.616700
vn -0.000000 0.855800 0.517300
vn -0.000000 0.911900 0.410400
vn -0.000000 0.954700 0.297500
vn -0.000000 0.983600 0.180300
vn -0.000000 0.998200 0.060400
vn 0.000000 1.000000 0.000000
s off
f 20//1 5//1 3//1 4//1
f 5//2 20//2 32//2 7//2
f 7//3 32//3 31//3 8//3
f 8//4 31//4 30//4 9//4
f 9//5 30//5 29//5 10//5
f 10//6 29//6 28//6 11//6
f 11//7 28//7 27//7 12//7
f 12//8 27//8 26//8 13//8
f 13//9 26//9 25//9 14//9
f 14//10 25//10 24//10 15//10
f 15//11 24//11 23//11 16//11
f 16//12 23//12 22//12 17//12
f 17//13 22//13 21//13 18//13
f 18//14 21//14 19//14 6//14
f 1//15 6//15 19//15 2//15
